<mxfile host="app.diagrams.net" agent="Mozilla/5.0 (Windows NT 10.0; Win64; x64) AppleWebKit/537.36 (KHTML, like Gecko) Chrome/133.0.0.0 Safari/537.36" version="26.0.13">
  <diagram id="C5RBs43oDa-KdzZeNtuy" name="Page-1">
    <mxGraphModel dx="2074" dy="1098" grid="1" gridSize="10" guides="1" tooltips="1" connect="1" arrows="1" fold="1" page="1" pageScale="1" pageWidth="827" pageHeight="1169" math="0" shadow="0">
      <root>
        <mxCell id="WIyWlLk6GJQsqaUBKTNV-0" />
        <mxCell id="WIyWlLk6GJQsqaUBKTNV-1" parent="WIyWlLk6GJQsqaUBKTNV-0" />
        <mxCell id="cb4Bg3rQaxXU0Edjb9ot-1" value="Plug in MCU&lt;div&gt;Connect Power Adaptor and Battery&lt;/div&gt;" style="rounded=1;whiteSpace=wrap;html=1;" vertex="1" parent="WIyWlLk6GJQsqaUBKTNV-1">
          <mxGeometry x="160" y="50" width="120" height="70" as="geometry" />
        </mxCell>
        <mxCell id="cb4Bg3rQaxXU0Edjb9ot-2" value="Initialize Sensors&lt;div&gt;- setup I2C&lt;/div&gt;&lt;div&gt;- AS5600 Init&lt;/div&gt;&lt;div&gt;- NAU7802 Init&lt;/div&gt;" style="rounded=1;whiteSpace=wrap;html=1;" vertex="1" parent="WIyWlLk6GJQsqaUBKTNV-1">
          <mxGeometry x="160" y="240" width="120" height="90" as="geometry" />
        </mxCell>
        <mxCell id="cb4Bg3rQaxXU0Edjb9ot-3" value="Initialize ESC&lt;div&gt;- esc arming sequence&lt;/div&gt;" style="rounded=1;whiteSpace=wrap;html=1;" vertex="1" parent="WIyWlLk6GJQsqaUBKTNV-1">
          <mxGeometry x="160" y="370" width="120" height="60" as="geometry" />
        </mxCell>
        <mxCell id="cb4Bg3rQaxXU0Edjb9ot-5" value="Setup()" style="rounded=1;whiteSpace=wrap;html=1;" vertex="1" parent="WIyWlLk6GJQsqaUBKTNV-1">
          <mxGeometry x="160" y="160" width="120" height="30" as="geometry" />
        </mxCell>
        <mxCell id="cb4Bg3rQaxXU0Edjb9ot-16" value="" style="edgeStyle=orthogonalEdgeStyle;rounded=0;orthogonalLoop=1;jettySize=auto;html=1;" edge="1" parent="WIyWlLk6GJQsqaUBKTNV-1" source="cb4Bg3rQaxXU0Edjb9ot-7" target="cb4Bg3rQaxXU0Edjb9ot-15">
          <mxGeometry relative="1" as="geometry" />
        </mxCell>
        <mxCell id="cb4Bg3rQaxXU0Edjb9ot-7" value="Loop()" style="rounded=1;whiteSpace=wrap;html=1;" vertex="1" parent="WIyWlLk6GJQsqaUBKTNV-1">
          <mxGeometry x="160" y="480" width="120" height="30" as="geometry" />
        </mxCell>
        <mxCell id="cb4Bg3rQaxXU0Edjb9ot-8" value="" style="endArrow=classic;html=1;rounded=0;entryX=0.5;entryY=0;entryDx=0;entryDy=0;" edge="1" parent="WIyWlLk6GJQsqaUBKTNV-1" target="cb4Bg3rQaxXU0Edjb9ot-5">
          <mxGeometry width="50" height="50" relative="1" as="geometry">
            <mxPoint x="220" y="120" as="sourcePoint" />
            <mxPoint x="230" y="190" as="targetPoint" />
          </mxGeometry>
        </mxCell>
        <mxCell id="cb4Bg3rQaxXU0Edjb9ot-9" value="" style="endArrow=classic;html=1;rounded=0;exitX=0.5;exitY=1;exitDx=0;exitDy=0;entryX=0.5;entryY=0;entryDx=0;entryDy=0;" edge="1" parent="WIyWlLk6GJQsqaUBKTNV-1" source="cb4Bg3rQaxXU0Edjb9ot-5" target="cb4Bg3rQaxXU0Edjb9ot-2">
          <mxGeometry width="50" height="50" relative="1" as="geometry">
            <mxPoint x="290" y="240" as="sourcePoint" />
            <mxPoint x="340" y="190" as="targetPoint" />
          </mxGeometry>
        </mxCell>
        <mxCell id="cb4Bg3rQaxXU0Edjb9ot-10" value="Start" style="ellipse;whiteSpace=wrap;html=1;" vertex="1" parent="WIyWlLk6GJQsqaUBKTNV-1">
          <mxGeometry x="50" y="10" width="60" height="30" as="geometry" />
        </mxCell>
        <mxCell id="cb4Bg3rQaxXU0Edjb9ot-11" value="" style="endArrow=classic;html=1;rounded=0;exitX=1;exitY=0.5;exitDx=0;exitDy=0;entryX=0.5;entryY=0;entryDx=0;entryDy=0;" edge="1" parent="WIyWlLk6GJQsqaUBKTNV-1" source="cb4Bg3rQaxXU0Edjb9ot-10" target="cb4Bg3rQaxXU0Edjb9ot-1">
          <mxGeometry width="50" height="50" relative="1" as="geometry">
            <mxPoint x="410" y="500" as="sourcePoint" />
            <mxPoint x="460" y="450" as="targetPoint" />
            <Array as="points">
              <mxPoint x="220" y="25" />
            </Array>
          </mxGeometry>
        </mxCell>
        <mxCell id="cb4Bg3rQaxXU0Edjb9ot-12" value="" style="endArrow=classic;html=1;rounded=0;exitX=0.5;exitY=1;exitDx=0;exitDy=0;" edge="1" parent="WIyWlLk6GJQsqaUBKTNV-1" source="cb4Bg3rQaxXU0Edjb9ot-2" target="cb4Bg3rQaxXU0Edjb9ot-3">
          <mxGeometry width="50" height="50" relative="1" as="geometry">
            <mxPoint x="390" y="490" as="sourcePoint" />
            <mxPoint x="440" y="440" as="targetPoint" />
          </mxGeometry>
        </mxCell>
        <mxCell id="cb4Bg3rQaxXU0Edjb9ot-13" value="" style="endArrow=classic;html=1;rounded=0;exitX=0.5;exitY=1;exitDx=0;exitDy=0;entryX=0.5;entryY=0;entryDx=0;entryDy=0;" edge="1" parent="WIyWlLk6GJQsqaUBKTNV-1" source="cb4Bg3rQaxXU0Edjb9ot-3" target="cb4Bg3rQaxXU0Edjb9ot-7">
          <mxGeometry width="50" height="50" relative="1" as="geometry">
            <mxPoint x="390" y="490" as="sourcePoint" />
            <mxPoint x="440" y="440" as="targetPoint" />
          </mxGeometry>
        </mxCell>
        <mxCell id="cb4Bg3rQaxXU0Edjb9ot-18" value="" style="edgeStyle=orthogonalEdgeStyle;rounded=0;orthogonalLoop=1;jettySize=auto;html=1;" edge="1" parent="WIyWlLk6GJQsqaUBKTNV-1" source="cb4Bg3rQaxXU0Edjb9ot-15" target="cb4Bg3rQaxXU0Edjb9ot-17">
          <mxGeometry relative="1" as="geometry" />
        </mxCell>
        <mxCell id="cb4Bg3rQaxXU0Edjb9ot-15" value="Set motor speed" style="shape=parallelogram;perimeter=parallelogramPerimeter;whiteSpace=wrap;html=1;fixedSize=1;" vertex="1" parent="WIyWlLk6GJQsqaUBKTNV-1">
          <mxGeometry x="380" y="472.5" width="130" height="45" as="geometry" />
        </mxCell>
        <mxCell id="cb4Bg3rQaxXU0Edjb9ot-20" value="" style="edgeStyle=orthogonalEdgeStyle;rounded=0;orthogonalLoop=1;jettySize=auto;html=1;" edge="1" parent="WIyWlLk6GJQsqaUBKTNV-1" source="cb4Bg3rQaxXU0Edjb9ot-17" target="cb4Bg3rQaxXU0Edjb9ot-19">
          <mxGeometry relative="1" as="geometry" />
        </mxCell>
        <mxCell id="cb4Bg3rQaxXU0Edjb9ot-17" value="Read AS5600&lt;div&gt;Read NAU7802&lt;/div&gt;" style="rounded=1;whiteSpace=wrap;html=1;" vertex="1" parent="WIyWlLk6GJQsqaUBKTNV-1">
          <mxGeometry x="385" y="555" width="120" height="60" as="geometry" />
        </mxCell>
        <mxCell id="cb4Bg3rQaxXU0Edjb9ot-22" value="" style="edgeStyle=orthogonalEdgeStyle;rounded=0;orthogonalLoop=1;jettySize=auto;html=1;" edge="1" parent="WIyWlLk6GJQsqaUBKTNV-1" source="cb4Bg3rQaxXU0Edjb9ot-19" target="cb4Bg3rQaxXU0Edjb9ot-21">
          <mxGeometry relative="1" as="geometry" />
        </mxCell>
        <mxCell id="cb4Bg3rQaxXU0Edjb9ot-19" value="Process raw data&lt;div&gt;Convert units&lt;/div&gt;" style="rounded=1;whiteSpace=wrap;html=1;" vertex="1" parent="WIyWlLk6GJQsqaUBKTNV-1">
          <mxGeometry x="385" y="660" width="120" height="60" as="geometry" />
        </mxCell>
        <mxCell id="cb4Bg3rQaxXU0Edjb9ot-23" style="edgeStyle=orthogonalEdgeStyle;rounded=0;orthogonalLoop=1;jettySize=auto;html=1;entryX=0.5;entryY=1;entryDx=0;entryDy=0;" edge="1" parent="WIyWlLk6GJQsqaUBKTNV-1" source="cb4Bg3rQaxXU0Edjb9ot-21" target="cb4Bg3rQaxXU0Edjb9ot-7">
          <mxGeometry relative="1" as="geometry" />
        </mxCell>
        <mxCell id="cb4Bg3rQaxXU0Edjb9ot-21" value="Log &amp;amp; print data" style="rounded=1;whiteSpace=wrap;html=1;" vertex="1" parent="WIyWlLk6GJQsqaUBKTNV-1">
          <mxGeometry x="385" y="770" width="120" height="60" as="geometry" />
        </mxCell>
      </root>
    </mxGraphModel>
  </diagram>
</mxfile>
